<?xml version="1.0" encoding="UTF-8"?>
<svg xmlns="http://www.w3.org/2000/svg" xmlns:xlink="http://www.w3.org/1999/xlink" width="50pt" height="50pt" viewBox="0 0 50 50" version="1.1">
<g id="surface1">
<path style=" stroke:none;fill-rule:nonzero;fill:rgb(0%,0%,0%);fill-opacity:1;" d="M 16.53125 2.574219 C 20.691406 0.71875 26.578125 0.0898438 32.160156 0.015625 C 38.046875 -0.0078125 43.9375 0.00390625 49.828125 0.00390625 C 49.851562 2.925781 49.851562 5.839844 49.828125 8.761719 C 46.03125 8.761719 42.207031 8.761719 38.410156 8.761719 C 36.007812 8.6875 33.527344 9.550781 33.089844 10.679688 C 33.039062 12.632812 33.0625 14.585938 33.0625 16.539062 C 38.640625 16.550781 44.222656 16.539062 49.800781 16.550781 C 49.386719 19.378906 48.636719 22.191406 47.761719 24.984375 C 42.828125 25.007812 37.894531 24.984375 32.960938 24.996094 C 32.90625 33.332031 32.984375 41.652344 32.933594 49.988281 C 25.597656 50 18.289062 49.976562 10.953125 50 C 10.820312 41.667969 10.953125 33.332031 10.875 24.996094 C 7.308594 24.984375 3.71875 25.007812 0.15625 24.984375 C 0.179688 22.179688 0.15625 19.378906 0.15625 16.589844 C 3.71875 16.5625 7.308594 16.589844 10.875 16.574219 C 10.976562 13.859375 10.769531 11.128906 10.976562 8.410156 C 11.367188 6.238281 13.097656 4.066406 16.53125 2.574219 Z M 16.53125 2.574219 "/>
</g>
</svg>
