<?xml version="1.0" encoding="UTF-8"?>
<svg xmlns="http://www.w3.org/2000/svg" xmlns:xlink="http://www.w3.org/1999/xlink" width="50pt" height="50pt" viewBox="0 0 50 50" version="1.1">
<g id="surface1">
<path style=" stroke:none;fill-rule:nonzero;fill:rgb(0%,0%,0%);fill-opacity:1;" d="M 25.042969 12.046875 C 17.875 12.046875 12.039062 17.816406 12.039062 24.910156 C 12.039062 32 17.871094 37.769531 25.042969 37.769531 C 32.210938 37.769531 38.042969 32 38.042969 24.910156 C 38.042969 17.816406 32.210938 12.046875 25.042969 12.046875 Z M 25.042969 33.035156 C 20.484375 33.035156 16.777344 29.390625 16.777344 24.910156 C 16.777344 20.425781 20.484375 16.78125 25.042969 16.78125 C 29.597656 16.78125 33.304688 20.425781 33.304688 24.910156 C 33.304688 29.390625 29.597656 33.035156 25.042969 33.035156 Z M 25.042969 33.035156 "/>
<path style=" stroke:none;fill-rule:nonzero;fill:rgb(0%,0%,0%);fill-opacity:1;" d="M 35.566406 0 L 14.433594 0 C 6.527344 0 0.0976562 6.429688 0.0976562 14.335938 L 0.0976562 35.664062 C 0.0976562 43.570312 6.527344 50 14.433594 50 L 35.566406 50 C 43.472656 50 49.902344 43.570312 49.902344 35.664062 L 49.902344 14.335938 C 49.902344 6.429688 43.472656 0 35.566406 0 Z M 45.160156 35.664062 C 45.160156 40.953125 40.855469 45.253906 35.566406 45.253906 L 14.433594 45.253906 C 9.144531 45.253906 4.839844 40.953125 4.839844 35.664062 L 4.839844 14.335938 C 4.839844 9.046875 9.144531 4.746094 14.433594 4.746094 L 35.566406 4.746094 C 40.855469 4.746094 45.160156 9.046875 45.160156 14.335938 Z M 45.160156 35.664062 "/>
<path style=" stroke:none;fill-rule:nonzero;fill:rgb(0%,0%,0%);fill-opacity:1;" d="M 41.332031 11.519531 C 41.332031 13.210938 39.960938 14.578125 38.273438 14.578125 C 36.582031 14.578125 35.214844 13.210938 35.214844 11.519531 C 35.214844 9.832031 36.582031 8.460938 38.273438 8.460938 C 39.960938 8.460938 41.332031 9.832031 41.332031 11.519531 Z M 41.332031 11.519531 "/>
</g>
</svg>
